<svg xmlns="http://www.w3.org/2000/svg" xmlns:xlink="http://www.w3.org/1999/xlink" width="2846" height="1024" viewBox="0 0 2846 1024" fill="none">
<path     fill="#21D49B"  d="M832 0C899.21 0 932.81 0 958.48 13.08Q960.58 14.1498 962.636 15.3012Q964.692 16.4526 966.701 17.6839Q968.71 18.9151 970.669 20.2243Q972.628 21.5335 974.535 22.9185Q976.441 24.3036 978.292 25.7624Q980.142 27.2213 981.934 28.7517Q983.726 30.282 985.456 31.8816Q987.187 33.4811 988.853 35.1473Q990.519 36.8136 992.119 38.5439Q993.718 40.2743 995.248 42.0661Q996.779 43.8579 998.238 45.7085Q999.696 47.559 1001.08 49.4653Q1002.47 51.3717 1003.78 53.331Q1005.08 55.2902 1006.32 57.2994Q1007.55 59.3086 1008.7 61.3645Q1009.85 63.4204 1010.92 65.52C1024 91.19 1024 124.79 1024 192L1024 832C1024 899.21 1024 932.81 1010.92 958.48Q1009.85 960.58 1008.7 962.636Q1007.55 964.692 1006.32 966.701Q1005.08 968.71 1003.78 970.669Q1002.47 972.628 1001.08 974.535Q999.696 976.441 998.238 978.292Q996.779 980.142 995.248 981.934Q993.718 983.726 992.119 985.456Q990.519 987.187 988.853 988.853Q987.187 990.519 985.456 992.119Q983.726 993.718 981.934 995.248Q980.142 996.779 978.292 998.238Q976.441 999.696 974.535 1001.08Q972.628 1002.47 970.669 1003.78Q968.71 1005.08 966.701 1006.32Q964.692 1007.55 962.636 1008.7Q960.58 1009.85 958.48 1010.92C932.81 1024 899.21 1024 832 1024L192 1024C124.79 1024 91.19 1024 65.52 1010.92Q63.4204 1009.85 61.3645 1008.7Q59.3086 1007.55 57.2994 1006.32Q55.2902 1005.08 53.331 1003.78Q51.3717 1002.47 49.4653 1001.08Q47.559 999.696 45.7085 998.238Q43.8579 996.779 42.0661 995.248Q40.2743 993.718 38.5439 992.119Q36.8136 990.519 35.1473 988.853Q33.4811 987.187 31.8816 985.456Q30.282 983.726 28.7517 981.934Q27.2213 980.142 25.7625 978.292Q24.3036 976.441 22.9185 974.535Q21.5335 972.628 20.2243 970.669Q18.9151 968.71 17.6839 966.701Q16.4526 964.692 15.3012 962.636Q14.1498 960.58 13.08 958.48C0 932.81 0 899.21 0 832L0 192C0 124.79 0 91.19 13.08 65.52Q14.1498 63.4204 15.3012 61.3645Q16.4526 59.3086 17.6839 57.2994Q18.9151 55.2902 20.2243 53.331Q21.5334 51.3717 22.9185 49.4653Q24.3036 47.559 25.7624 45.7084Q27.2213 43.8579 28.7516 42.0661Q30.282 40.2743 31.8816 38.5439Q33.4811 36.8136 35.1473 35.1473Q36.8136 33.4811 38.5439 31.8816Q40.2743 30.282 42.0661 28.7516Q43.8579 27.2213 45.7084 25.7624Q47.559 24.3036 49.4653 22.9185Q51.3717 21.5334 53.331 20.2243Q55.2902 18.9151 57.2994 17.6839Q59.3086 16.4526 61.3645 15.3012Q63.4204 14.1498 65.52 13.08C91.19 0 124.79 0 192 0L832 0Z">
</path>
<path d="M811.286 429.454L811.309 429.264C715.251 395.422 641.481 314.053 618.283 213.517L617.055 213.517C617.055 213.082 617.045 212.649 617.023 212.216C617.002 211.782 616.97 211.349 616.928 210.917C616.885 210.486 616.832 210.055 616.768 209.626C616.705 209.196 616.631 208.769 616.546 208.343C616.461 207.918 616.366 207.495 616.261 207.074C616.155 206.653 616.039 206.234 615.914 205.819C615.788 205.404 615.652 204.992 615.505 204.583C615.359 204.175 615.203 203.77 615.037 203.369C614.87 202.968 614.695 202.572 614.509 202.179C614.324 201.787 614.129 201.4 613.924 201.017C613.719 200.634 613.505 200.257 613.283 199.884C613.06 199.512 612.828 199.146 612.586 198.785C612.345 198.424 612.095 198.069 611.837 197.721C611.579 197.372 611.312 197.03 611.036 196.695C610.761 196.359 610.478 196.031 610.186 195.709C609.895 195.388 609.596 195.073 609.289 194.767C608.982 194.46 608.668 194.161 608.346 193.869C608.024 193.578 607.696 193.294 607.361 193.019C607.026 192.744 606.683 192.477 606.335 192.218C605.986 191.96 605.631 191.71 605.271 191.469C604.91 191.228 604.543 190.996 604.171 190.773C603.799 190.549 603.421 190.336 603.039 190.131C602.656 189.926 602.268 189.731 601.876 189.546C601.483 189.36 601.087 189.184 600.687 189.018C600.286 188.852 599.881 188.696 599.472 188.55C599.063 188.404 598.651 188.268 598.236 188.142C597.821 188.016 597.403 187.9 596.982 187.795C596.561 187.689 596.137 187.594 595.712 187.509C595.286 187.425 594.859 187.351 594.429 187.287C594 187.223 593.57 187.17 593.138 187.128C592.706 187.085 592.274 187.053 591.84 187.032C591.406 187.011 590.973 187 590.539 187C590.104 187 589.671 187.011 589.238 187.032C588.804 187.053 588.371 187.085 587.939 187.128C587.508 187.17 587.077 187.223 586.648 187.287C586.219 187.351 585.791 187.425 585.365 187.509C584.94 187.594 584.517 187.689 584.096 187.795C583.675 187.9 583.256 188.016 582.841 188.142C582.426 188.268 582.014 188.404 581.605 188.55C581.197 188.696 580.792 188.852 580.391 189.018C579.99 189.184 579.594 189.36 579.202 189.546C578.809 189.731 578.421 189.926 578.039 190.131C577.656 190.336 577.279 190.549 576.907 190.773C576.534 190.996 576.167 191.228 575.806 191.469C575.446 191.71 575.091 191.96 574.742 192.218C574.394 192.477 574.052 192.744 573.717 193.019C573.381 193.294 573.053 193.578 572.731 193.869C572.41 194.161 572.095 194.46 571.788 194.767C571.481 195.073 571.182 195.388 570.891 195.709C570.6 196.031 570.317 196.359 570.041 196.695C569.765 197.03 569.498 197.372 569.24 197.721C568.982 198.069 568.732 198.424 568.491 198.785C568.25 199.146 568.018 199.512 567.794 199.884C567.572 200.257 567.358 200.634 567.153 201.017C566.948 201.4 566.753 201.787 566.568 202.179C566.382 202.572 566.207 202.968 566.04 203.369C565.874 203.77 565.718 204.175 565.572 204.583C565.426 204.992 565.29 205.404 565.163 205.819C565.038 206.234 564.922 206.653 564.816 207.074C564.711 207.495 564.616 207.918 564.532 208.343C564.447 208.769 564.373 209.196 564.309 209.626C564.245 210.055 564.192 210.486 564.15 210.917C564.108 211.349 564.075 211.782 564.054 212.216C564.032 212.649 564.022 213.082 564.022 213.517L564.022 482.032C524.793 437.257 467.236 408.952 403.028 408.952C284.824 408.952 189 504.776 189 622.98C189 741.184 284.832 837 403.028 837C521.224 837 617.055 741.177 617.055 622.973C617.055 618.343 616.858 613.767 616.571 609.214C616.879 607.614 617.041 606.002 617.055 604.373L617.055 344.154C659.384 407.975 721.993 456.046 797.967 480.093C800.097 481.131 802.354 481.911 804.756 482.343L805.12 482.464L805.127 482.381C806.536 482.609 807.945 482.82 809.415 482.82C824.06 482.82 835.932 470.835 835.932 456.046C835.933 455.63 835.924 455.214 835.906 454.8C835.888 454.384 835.859 453.97 835.822 453.556C835.784 453.142 835.736 452.729 835.679 452.318C835.622 451.906 835.555 451.496 835.479 451.087C835.403 450.678 835.316 450.271 835.221 449.867C835.125 449.463 835.021 449.061 834.906 448.661C834.792 448.262 834.668 447.865 834.536 447.471C834.403 447.077 834.261 446.687 834.11 446.3C833.958 445.912 833.798 445.529 833.629 445.149C833.459 444.77 833.282 444.395 833.095 444.023C832.908 443.652 832.713 443.285 832.509 442.923C832.305 442.561 832.093 442.204 831.872 441.852C831.65 441.5 831.422 441.153 831.185 440.812C830.948 440.47 830.703 440.134 830.45 439.804C830.198 439.474 829.938 439.15 829.669 438.832C829.401 438.514 829.126 438.204 828.843 437.899C828.561 437.594 828.272 437.296 827.975 437.004C827.679 436.713 827.375 436.429 827.065 436.152C826.755 435.874 826.439 435.605 826.117 435.343C825.794 435.081 825.466 434.826 825.132 434.58C824.798 434.333 824.457 434.094 824.112 433.863C823.766 433.632 823.415 433.409 823.059 433.195C822.703 432.98 822.342 432.774 821.977 432.577C821.611 432.379 821.241 432.191 820.866 432.01C820.492 431.83 820.113 431.659 819.73 431.497C819.348 431.334 818.962 431.181 818.572 431.036C818.182 430.891 817.789 430.757 817.393 430.631C816.997 430.505 816.599 430.388 816.197 430.282C815.795 430.174 815.391 430.076 814.985 429.988C814.579 429.9 814.171 429.822 813.761 429.752C813.351 429.683 812.94 429.623 812.527 429.574C812.115 429.523 811.701 429.484 811.286 429.454ZM403.028 783.967C314.257 783.967 242.033 711.75 242.033 622.973C242.033 534.195 314.257 461.978 403.028 461.978C491.806 461.978 564.022 534.195 564.022 622.973C564.022 711.75 491.806 783.967 403.028 783.967Z"   fill="#FFFFFF" >
</path>
<path d="M1262.6 766.28L1244.92 724.16C1343.72 700.24 1418.6 658.12 1418.6 658.12C1405.6 643.56 1390 628.74 1390 628.74C1374.4 613.92 1357.76 600.4 1357.76 600.4C1329.68 617.56 1299.52 632.64 1299.52 632.64L1274.56 594.16C1315.12 576.48 1351 552.82 1351 552.82C1386.88 529.16 1415.22 503.94 1415.22 503.94C1443.56 478.72 1461.76 456.36 1461.76 456.36C1424.84 480.8 1380.38 501.08 1380.38 501.08C1335.92 521.36 1281.84 536.44 1281.84 536.44L1263.64 494.84C1309.92 483.4 1347.62 468.32 1347.62 468.32C1385.32 453.24 1416.52 435.04 1416.52 435.04C1404.04 422.04 1389.74 409.3 1389.74 409.3C1375.44 396.56 1360.36 385.12 1360.36 385.12C1334.88 403.32 1306.8 417.88 1306.8 417.88L1283.4 383.04C1330.72 360.68 1368.68 327.14 1368.68 327.14C1406.64 293.6 1430.56 257.72 1430.56 257.72L1466.44 275.92C1457.6 289.44 1447.2 302.96 1447.2 302.96L1551.2 302.96C1567.84 302.96 1576.16 311.28 1576.16 311.28C1584.48 319.6 1584.22 331.3 1584.22 331.3C1583.96 343 1575.12 353.4 1575.12 353.4C1554.32 378.36 1529.88 401.76 1529.88 401.76C1505.44 425.16 1476.84 445.96 1476.84 445.96L1508.04 464.16C1500.76 474.04 1492.18 484.7 1492.18 484.7C1483.6 495.36 1473.72 506.28 1473.72 506.28L1566.28 506.28C1590.72 506.28 1597.48 520.58 1597.48 520.58C1604.24 534.88 1593.84 553.08 1593.84 553.08C1564.72 603 1516.36 644.34 1516.36 644.34C1468 685.68 1403.78 716.62 1403.78 716.62C1339.56 747.56 1262.6 766.28 1262.6 766.28ZM1392.08 360.68C1408.2 372.12 1423.28 385.64 1423.28 385.64C1438.36 399.16 1451.36 412.16 1451.36 412.16C1473.72 396.56 1493.48 379.14 1493.48 379.14C1513.24 361.72 1531.96 343 1531.96 343L1411.32 343C1401.96 351.84 1392.08 360.68 1392.08 360.68ZM1393.12 577C1409.24 589.48 1425.36 604.82 1425.36 604.82C1441.48 620.16 1455 635.24 1455 635.24C1512.2 595.72 1546.52 546.84 1546.52 546.84L1431.08 546.84C1412.88 562.44 1393.12 577 1393.12 577ZM1678.6 766.28L1660.92 724.16C1759.72 700.24 1834.6 658.12 1834.6 658.12C1821.6 643.56 1806 628.74 1806 628.74C1790.4 613.92 1773.76 600.4 1773.76 600.4C1745.68 617.56 1715.52 632.64 1715.52 632.64L1690.56 594.16C1731.12 576.48 1767 552.82 1767 552.82C1802.88 529.16 1831.22 503.94 1831.22 503.94C1859.56 478.72 1877.76 456.36 1877.76 456.36C1840.84 480.8 1796.38 501.08 1796.38 501.08C1751.92 521.36 1697.84 536.44 1697.84 536.44L1679.64 494.84C1725.92 483.4 1763.62 468.32 1763.62 468.32C1801.32 453.24 1832.52 435.04 1832.52 435.04C1820.04 422.04 1805.74 409.3 1805.74 409.3C1791.44 396.56 1776.36 385.12 1776.36 385.12C1750.88 403.32 1722.8 417.88 1722.8 417.88L1699.4 383.04C1746.72 360.68 1784.68 327.14 1784.68 327.14C1822.64 293.6 1846.56 257.72 1846.56 257.72L1882.44 275.92C1873.6 289.44 1863.2 302.96 1863.2 302.96L1967.2 302.96C1983.84 302.96 1992.16 311.28 1992.16 311.28C2000.48 319.6 2000.22 331.3 2000.22 331.3C1999.96 343 1991.12 353.4 1991.12 353.4C1970.32 378.36 1945.88 401.76 1945.88 401.76C1921.44 425.16 1892.84 445.96 1892.84 445.96L1924.04 464.16C1916.76 474.04 1908.18 484.7 1908.18 484.7C1899.6 495.36 1889.72 506.28 1889.72 506.28L1982.28 506.28C2006.72 506.28 2013.48 520.58 2013.48 520.58C2020.24 534.88 2009.84 553.08 2009.84 553.08C1980.72 603 1932.36 644.34 1932.36 644.34C1884 685.68 1819.78 716.62 1819.78 716.62C1755.56 747.56 1678.6 766.28 1678.6 766.28ZM1808.08 360.68C1824.2 372.12 1839.28 385.64 1839.28 385.64C1854.36 399.16 1867.36 412.16 1867.36 412.16C1889.72 396.56 1909.48 379.14 1909.48 379.14C1929.24 361.72 1947.96 343 1947.96 343L1827.32 343C1817.96 351.84 1808.08 360.68 1808.08 360.68ZM1809.12 577C1825.24 589.48 1841.36 604.82 1841.36 604.82C1857.48 620.16 1871 635.24 1871 635.24C1928.2 595.72 1962.52 546.84 1962.52 546.84L1847.08 546.84C1828.88 562.44 1809.12 577 1809.12 577ZM2437.28 427.24L2432.6 471.44L2091.48 471.44L2096.16 427.24L2181.96 427.24C2175.72 391.88 2172.6 356.52 2172.6 356.52L2117.48 356.52L2122.16 312.32L2256.84 312.32L2262.04 261.88L2309.88 261.88L2304.68 312.32L2439.88 312.32L2435.2 356.52L2378 356.52C2372.28 374.72 2365.26 392.14 2365.26 392.14C2358.24 409.56 2349.92 427.24 2349.92 427.24L2437.28 427.24ZM2227.72 427.24L2301.56 427.24C2319.24 391.88 2331.72 356.52 2331.72 356.52L2218.36 356.52C2219.92 374.2 2222.26 391.88 2222.26 391.88C2224.6 409.56 2227.72 427.24 2227.72 427.24ZM2383.2 558.8L2360.84 765.24L2109.16 765.24L2136.2 512.52L2346.28 512.52C2366.04 512.52 2375.66 525.52 2375.66 525.52C2385.28 538.52 2383.2 558.8 2383.2 558.8ZM2171.04 613.4L2331.2 613.4L2336.92 560.36L2176.76 560.36L2171.04 613.4ZM2160.64 717.4L2320.28 717.4L2326.52 656.56L2166.88 656.56L2160.64 717.4ZM2593.8 696.6C2600.56 721.04 2614.6 721.04 2614.6 721.04C2623.96 721.04 2629.94 712.72 2629.94 712.72C2635.92 704.4 2638 680.48 2638 680.48L2655.16 519.28L2524.64 519.28L2570.92 299.84L2590.16 299.84C2655.68 295.68 2715.74 285.8 2715.74 285.8C2775.8 275.92 2835.08 261.36 2835.08 261.36L2846 305.04C2792.96 320.64 2732.12 330.78 2732.12 330.78C2671.28 340.92 2608.36 345.6 2608.36 345.6L2581.32 473L2659.84 473L2670.24 374.72L2716.52 374.72L2706.12 473L2828.32 473L2823.64 519.28L2701.44 519.28L2683.76 687.24C2680.12 725.2 2664.78 745.48 2664.78 745.48C2649.44 765.76 2619.8 765.76 2619.8 765.76C2595.88 765.76 2578.46 750.94 2578.46 750.94C2561.04 736.12 2554.28 704.92 2554.28 704.92L2593.8 696.6ZM2515.8 738.2L2476.8 710.12C2503.84 673.72 2522.82 634.46 2522.82 634.46C2541.8 595.2 2556.36 553.6 2556.36 553.6L2598.48 570.24C2584.44 613.4 2565.2 655.26 2565.2 655.26C2545.96 697.12 2515.8 738.2 2515.8 738.2ZM2775.8 557.24C2787.76 603.52 2799.46 643.3 2799.46 643.3C2811.16 683.08 2824.16 716.36 2824.16 716.36L2781 735.08C2766.44 692.96 2754.48 651.88 2754.48 651.88C2742.52 610.8 2732.12 569.72 2732.12 569.72L2775.8 557.24Z" fill-rule="evenodd"  fill="#283248" >
</path>
</svg>
